<svg width="288" height="50" viewBox="0 0 288 50" fill="none" xmlns="http://www.w3.org/2000/svg">
<g filter="url(#filter0_d_2_309)">
<path d="M8.50391 6.47266H24.5977C26.9414 6.47266 28.9727 6.72656 30.6914 7.23438C32.4102 7.74219 33.8359 8.47786 34.9688 9.44141C36.1016 10.3919 36.9414 11.5573 37.4883 12.9375C38.0482 14.3177 38.3281 15.8737 38.3281 17.6055C38.3281 19.2331 38.0547 20.737 37.5078 22.1172C36.9609 23.4974 36.1211 24.6953 34.9883 25.7109C33.8685 26.7135 32.4492 27.5013 30.7305 28.0742C29.0117 28.6341 26.9805 28.9141 24.6367 28.9141L14.6953 28.8945V37H8.50391V6.47266ZM24.7539 23.543C25.9258 23.543 26.9479 23.4062 27.8203 23.1328C28.7057 22.8464 29.4414 22.4492 30.0273 21.9414C30.6263 21.4206 31.069 20.7956 31.3555 20.0664C31.6549 19.3242 31.8047 18.5039 31.8047 17.6055C31.8047 15.7956 31.2122 14.3893 30.0273 13.3867C28.8555 12.3711 27.0977 11.8633 24.7539 11.8633H14.6953V23.543H24.7539ZM44.3828 4.61719H50.1641V15.7109C51.375 15.0469 52.7227 14.5195 54.207 14.1289C55.7044 13.7383 57.2734 13.543 58.9141 13.543C60.8151 13.543 62.5208 13.8229 64.0312 14.3828C65.5547 14.9427 66.8438 15.75 67.8984 16.8047C68.9531 17.8464 69.7604 19.1159 70.3203 20.6133C70.8932 22.1107 71.1797 23.7969 71.1797 25.6719V37H65.418V25.9062C65.418 24.8125 65.2422 23.8164 64.8906 22.918C64.5391 22.0065 64.0247 21.2253 63.3477 20.5742C62.6706 19.9232 61.8438 19.4219 60.8672 19.0703C59.9036 18.7057 58.8099 18.5234 57.5859 18.5234C56.1146 18.5234 54.7474 18.7578 53.4844 19.2266C52.2214 19.6953 51.1146 20.2878 50.1641 21.0039V37H44.3828V4.61719ZM76.2773 25.4766C76.2773 23.8229 76.6094 22.2734 77.2734 20.8281C77.9505 19.3828 78.9076 18.1198 80.1445 17.0391C81.3945 15.9583 82.8984 15.1055 84.6562 14.4805C86.4271 13.8555 88.4128 13.543 90.6133 13.543C92.8138 13.543 94.793 13.8555 96.5508 14.4805C98.3216 15.1055 99.8255 15.9583 101.062 17.0391C102.312 18.1198 103.27 19.3828 103.934 20.8281C104.611 22.2734 104.949 23.8229 104.949 25.4766C104.949 27.1302 104.611 28.6797 103.934 30.125C103.27 31.5703 102.312 32.8333 101.062 33.9141C99.8255 34.9948 98.3216 35.8477 96.5508 36.4727C94.793 37.0977 92.8138 37.4102 90.6133 37.4102C88.4128 37.4102 86.4271 37.0977 84.6562 36.4727C82.8984 35.8477 81.3945 34.9948 80.1445 33.9141C78.9076 32.8333 77.9505 31.5703 77.2734 30.125C76.6094 28.6797 76.2773 27.1302 76.2773 25.4766ZM82.3516 25.4766C82.3516 26.401 82.5339 27.2799 82.8984 28.1133C83.276 28.9336 83.8164 29.6628 84.5195 30.3008C85.2357 30.9258 86.1016 31.4271 87.1172 31.8047C88.1458 32.1693 89.3112 32.3516 90.6133 32.3516C91.9154 32.3516 93.0742 32.1693 94.0898 31.8047C95.1185 31.4271 95.9844 30.9258 96.6875 30.3008C97.4036 29.6628 97.944 28.9336 98.3086 28.1133C98.6862 27.2799 98.875 26.401 98.875 25.4766C98.875 24.5521 98.6862 23.6732 98.3086 22.8398C97.944 22.0065 97.4036 21.2773 96.6875 20.6523C95.9844 20.0143 95.1185 19.513 94.0898 19.1484C93.0742 18.7708 91.9154 18.582 90.6133 18.582C89.3112 18.582 88.1458 18.7708 87.1172 19.1484C86.1016 19.513 85.2357 20.0143 84.5195 20.6523C83.8164 21.2773 83.276 22.0065 82.8984 22.8398C82.5339 23.6732 82.3516 24.5521 82.3516 25.4766ZM114.266 18.2891H108.699V13.9531H114.266V6.78516H120.047V13.9531H125.613V18.2891H120.047V37H114.266V18.2891ZM129.363 25.4766C129.363 23.8229 129.695 22.2734 130.359 20.8281C131.036 19.3828 131.993 18.1198 133.23 17.0391C134.48 15.9583 135.984 15.1055 137.742 14.4805C139.513 13.8555 141.499 13.543 143.699 13.543C145.9 13.543 147.879 13.8555 149.637 14.4805C151.408 15.1055 152.911 15.9583 154.148 17.0391C155.398 18.1198 156.355 19.3828 157.02 20.8281C157.697 22.2734 158.035 23.8229 158.035 25.4766C158.035 27.1302 157.697 28.6797 157.02 30.125C156.355 31.5703 155.398 32.8333 154.148 33.9141C152.911 34.9948 151.408 35.8477 149.637 36.4727C147.879 37.0977 145.9 37.4102 143.699 37.4102C141.499 37.4102 139.513 37.0977 137.742 36.4727C135.984 35.8477 134.48 34.9948 133.23 33.9141C131.993 32.8333 131.036 31.5703 130.359 30.125C129.695 28.6797 129.363 27.1302 129.363 25.4766ZM135.438 25.4766C135.438 26.401 135.62 27.2799 135.984 28.1133C136.362 28.9336 136.902 29.6628 137.605 30.3008C138.322 30.9258 139.188 31.4271 140.203 31.8047C141.232 32.1693 142.397 32.3516 143.699 32.3516C145.001 32.3516 146.16 32.1693 147.176 31.8047C148.204 31.4271 149.07 30.9258 149.773 30.3008C150.49 29.6628 151.03 28.9336 151.395 28.1133C151.772 27.2799 151.961 26.401 151.961 25.4766C151.961 24.5521 151.772 23.6732 151.395 22.8398C151.03 22.0065 150.49 21.2773 149.773 20.6523C149.07 20.0143 148.204 19.513 147.176 19.1484C146.16 18.7708 145.001 18.582 143.699 18.582C142.397 18.582 141.232 18.7708 140.203 19.1484C139.188 19.513 138.322 20.0143 137.605 20.6523C136.902 21.2773 136.362 22.0065 135.984 22.8398C135.62 23.6732 135.438 24.5521 135.438 25.4766ZM177.156 13.9531H182.938V15.9062C184.474 15.0339 185.939 14.4219 187.332 14.0703C188.738 13.7188 190.112 13.543 191.453 13.543C193.211 13.543 194.839 13.8034 196.336 14.3242C197.833 14.832 199.129 15.5938 200.223 16.6094C201.316 17.625 202.169 18.8945 202.781 20.418C203.406 21.9284 203.719 23.6797 203.719 25.6719V37H197.957V26.6094C197.957 25.3464 197.775 24.2201 197.41 23.2305C197.059 22.2279 196.544 21.388 195.867 20.7109C195.203 20.0208 194.389 19.5 193.426 19.1484C192.475 18.7839 191.408 18.6016 190.223 18.6016C189.598 18.6016 188.953 18.6667 188.289 18.7969C187.638 18.9271 186.993 19.1159 186.355 19.3633C185.73 19.5977 185.125 19.8971 184.539 20.2617C183.953 20.6133 183.419 21.0169 182.938 21.4727V37H177.156V13.9531ZM209.441 25.4766C209.441 23.8229 209.773 22.2734 210.438 20.8281C211.115 19.3828 212.072 18.1198 213.309 17.0391C214.559 15.9583 216.062 15.1055 217.82 14.4805C219.591 13.8555 221.577 13.543 223.777 13.543C225.978 13.543 227.957 13.8555 229.715 14.4805C231.486 15.1055 232.99 15.9583 234.227 17.0391C235.477 18.1198 236.434 19.3828 237.098 20.8281C237.775 22.2734 238.113 23.8229 238.113 25.4766C238.113 27.1302 237.775 28.6797 237.098 30.125C236.434 31.5703 235.477 32.8333 234.227 33.9141C232.99 34.9948 231.486 35.8477 229.715 36.4727C227.957 37.0977 225.978 37.4102 223.777 37.4102C221.577 37.4102 219.591 37.0977 217.82 36.4727C216.062 35.8477 214.559 34.9948 213.309 33.9141C212.072 32.8333 211.115 31.5703 210.438 30.125C209.773 28.6797 209.441 27.1302 209.441 25.4766ZM215.516 25.4766C215.516 26.401 215.698 27.2799 216.062 28.1133C216.44 28.9336 216.98 29.6628 217.684 30.3008C218.4 30.9258 219.266 31.4271 220.281 31.8047C221.31 32.1693 222.475 32.3516 223.777 32.3516C225.079 32.3516 226.238 32.1693 227.254 31.8047C228.283 31.4271 229.148 30.9258 229.852 30.3008C230.568 29.6628 231.108 28.9336 231.473 28.1133C231.85 27.2799 232.039 26.401 232.039 25.4766C232.039 24.5521 231.85 23.6732 231.473 22.8398C231.108 22.0065 230.568 21.2773 229.852 20.6523C229.148 20.0143 228.283 19.513 227.254 19.1484C226.238 18.7708 225.079 18.582 223.777 18.582C222.475 18.582 221.31 18.7708 220.281 19.1484C219.266 19.513 218.4 20.0143 217.684 20.6523C216.98 21.2773 216.44 22.0065 216.062 22.8398C215.698 23.6732 215.516 24.5521 215.516 25.4766ZM240.77 13.9336H247.469L253.465 27.8008L255.223 31.6875L257.371 26.6484L251.668 13.9336H257.293L260.086 20.7695L262.879 13.9336H268.504L262.781 26.6484L264.949 31.6875L266.707 27.8008L272.703 13.9336H279.402L268.484 37H262.195L260.086 32.5469L257.977 37H251.688L240.77 13.9336Z" fill="black"/>
</g>
<defs>
<filter id="filter0_d_2_309" x="0.503906" y="0.617188" width="286.898" height="48.793" filterUnits="userSpaceOnUse" color-interpolation-filters="sRGB">
<feFlood flood-opacity="0" result="BackgroundImageFix"/>
<feColorMatrix in="SourceAlpha" type="matrix" values="0 0 0 0 0 0 0 0 0 0 0 0 0 0 0 0 0 0 127 0" result="hardAlpha"/>
<feOffset dy="4"/>
<feGaussianBlur stdDeviation="4"/>
<feComposite in2="hardAlpha" operator="out"/>
<feColorMatrix type="matrix" values="0 0 0 0 0 0 0 0 0 0 0 0 0 0 0 0 0 0 0.25 0"/>
<feBlend mode="normal" in2="BackgroundImageFix" result="effect1_dropShadow_2_309"/>
<feBlend mode="normal" in="SourceGraphic" in2="effect1_dropShadow_2_309" result="shape"/>
</filter>
</defs>
</svg>
